<mxfile host="app.diagrams.net" agent="Mozilla/5.0 (Windows NT 10.0; Win64; x64) AppleWebKit/537.36 (KHTML, like Gecko) Chrome/130.0.0.0 Safari/537.36" version="24.8.3">
  <diagram name="Страница — 1" id="rpj12Ja_recT80tQ7WZs">
    <mxGraphModel dx="3400" dy="1348" grid="1" gridSize="10" guides="1" tooltips="1" connect="1" arrows="1" fold="1" page="1" pageScale="1" pageWidth="827" pageHeight="1169" math="0" shadow="0">
      <root>
        <mxCell id="0" />
        <mxCell id="1" parent="0" />
        <mxCell id="nUuJe6dKJoetneS6zdkK-6" style="edgeStyle=orthogonalEdgeStyle;rounded=0;orthogonalLoop=1;jettySize=auto;html=1;exitX=0.5;exitY=1;exitDx=0;exitDy=0;entryX=0.5;entryY=0;entryDx=0;entryDy=0;" edge="1" parent="1" source="nUuJe6dKJoetneS6zdkK-1" target="nUuJe6dKJoetneS6zdkK-2">
          <mxGeometry relative="1" as="geometry" />
        </mxCell>
        <mxCell id="nUuJe6dKJoetneS6zdkK-1" value="Product check" style="rounded=1;whiteSpace=wrap;html=1;" vertex="1" parent="1">
          <mxGeometry x="200" y="40" width="160" height="60" as="geometry" />
        </mxCell>
        <mxCell id="nUuJe6dKJoetneS6zdkK-4" style="edgeStyle=orthogonalEdgeStyle;rounded=0;orthogonalLoop=1;jettySize=auto;html=1;exitX=0;exitY=0.5;exitDx=0;exitDy=0;entryX=0.5;entryY=0;entryDx=0;entryDy=0;" edge="1" parent="1" source="nUuJe6dKJoetneS6zdkK-2" target="nUuJe6dKJoetneS6zdkK-3">
          <mxGeometry relative="1" as="geometry" />
        </mxCell>
        <mxCell id="nUuJe6dKJoetneS6zdkK-8" style="edgeStyle=orthogonalEdgeStyle;rounded=0;orthogonalLoop=1;jettySize=auto;html=1;exitX=1;exitY=0.5;exitDx=0;exitDy=0;entryX=0.5;entryY=0;entryDx=0;entryDy=0;" edge="1" parent="1" source="nUuJe6dKJoetneS6zdkK-2" target="nUuJe6dKJoetneS6zdkK-7">
          <mxGeometry relative="1" as="geometry" />
        </mxCell>
        <mxCell id="nUuJe6dKJoetneS6zdkK-2" value="Есть запись в сводке" style="rhombus;whiteSpace=wrap;html=1;" vertex="1" parent="1">
          <mxGeometry x="200" y="160" width="160" height="80" as="geometry" />
        </mxCell>
        <mxCell id="nUuJe6dKJoetneS6zdkK-3" value="&quot;Запись в сводке не найдена!&quot;" style="rounded=1;whiteSpace=wrap;html=1;fillColor=#f8cecc;strokeColor=#b85450;" vertex="1" parent="1">
          <mxGeometry x="40" y="240" width="160" height="80" as="geometry" />
        </mxCell>
        <mxCell id="nUuJe6dKJoetneS6zdkK-5" value="Нет" style="text;html=1;align=center;verticalAlign=middle;resizable=0;points=[];autosize=1;strokeColor=none;fillColor=none;" vertex="1" parent="1">
          <mxGeometry x="150" y="168" width="40" height="30" as="geometry" />
        </mxCell>
        <mxCell id="nUuJe6dKJoetneS6zdkK-11" style="edgeStyle=orthogonalEdgeStyle;rounded=0;orthogonalLoop=1;jettySize=auto;html=1;exitX=1;exitY=0.5;exitDx=0;exitDy=0;entryX=0.5;entryY=0;entryDx=0;entryDy=0;" edge="1" parent="1" source="nUuJe6dKJoetneS6zdkK-7" target="nUuJe6dKJoetneS6zdkK-10">
          <mxGeometry relative="1" as="geometry" />
        </mxCell>
        <mxCell id="nUuJe6dKJoetneS6zdkK-41" style="edgeStyle=orthogonalEdgeStyle;rounded=0;orthogonalLoop=1;jettySize=auto;html=1;exitX=0;exitY=0.5;exitDx=0;exitDy=0;" edge="1" parent="1" source="nUuJe6dKJoetneS6zdkK-7" target="nUuJe6dKJoetneS6zdkK-33">
          <mxGeometry relative="1" as="geometry" />
        </mxCell>
        <mxCell id="nUuJe6dKJoetneS6zdkK-7" value="Это набор" style="rhombus;whiteSpace=wrap;html=1;" vertex="1" parent="1">
          <mxGeometry x="400" y="238" width="160" height="80" as="geometry" />
        </mxCell>
        <mxCell id="nUuJe6dKJoetneS6zdkK-9" value="Да" style="text;html=1;align=center;verticalAlign=middle;resizable=0;points=[];autosize=1;strokeColor=none;fillColor=none;" vertex="1" parent="1">
          <mxGeometry x="370" y="168" width="40" height="30" as="geometry" />
        </mxCell>
        <mxCell id="nUuJe6dKJoetneS6zdkK-50" style="edgeStyle=orthogonalEdgeStyle;rounded=0;orthogonalLoop=1;jettySize=auto;html=1;exitX=1;exitY=0.5;exitDx=0;exitDy=0;entryX=0;entryY=0.5;entryDx=0;entryDy=0;" edge="1" parent="1" source="nUuJe6dKJoetneS6zdkK-10" target="nUuJe6dKJoetneS6zdkK-13">
          <mxGeometry relative="1" as="geometry" />
        </mxCell>
        <mxCell id="nUuJe6dKJoetneS6zdkK-70" style="edgeStyle=orthogonalEdgeStyle;rounded=0;orthogonalLoop=1;jettySize=auto;html=1;" edge="1" parent="1" source="nUuJe6dKJoetneS6zdkK-10" target="nUuJe6dKJoetneS6zdkK-20">
          <mxGeometry relative="1" as="geometry" />
        </mxCell>
        <mxCell id="nUuJe6dKJoetneS6zdkK-10" value="Есть запись в истории" style="rhombus;whiteSpace=wrap;html=1;" vertex="1" parent="1">
          <mxGeometry x="680" y="360" width="160" height="80" as="geometry" />
        </mxCell>
        <mxCell id="nUuJe6dKJoetneS6zdkK-12" value="Нет" style="text;html=1;align=center;verticalAlign=middle;resizable=0;points=[];autosize=1;strokeColor=none;fillColor=none;" vertex="1" parent="1">
          <mxGeometry x="560" y="248" width="40" height="30" as="geometry" />
        </mxCell>
        <mxCell id="nUuJe6dKJoetneS6zdkK-13" value="&quot;Необходим допуск на подключение!&quot;" style="rounded=1;whiteSpace=wrap;html=1;fillColor=#f8cecc;strokeColor=#b85450;" vertex="1" parent="1">
          <mxGeometry x="880" y="360" width="160" height="80" as="geometry" />
        </mxCell>
        <mxCell id="nUuJe6dKJoetneS6zdkK-53" style="edgeStyle=orthogonalEdgeStyle;rounded=0;orthogonalLoop=1;jettySize=auto;html=1;" edge="1" parent="1">
          <mxGeometry relative="1" as="geometry">
            <mxPoint x="520" y="560" as="targetPoint" />
            <mxPoint x="680" y="640" as="sourcePoint" />
            <Array as="points">
              <mxPoint x="521" y="640" />
            </Array>
          </mxGeometry>
        </mxCell>
        <mxCell id="nUuJe6dKJoetneS6zdkK-68" style="edgeStyle=orthogonalEdgeStyle;rounded=0;orthogonalLoop=1;jettySize=auto;html=1;entryX=0.5;entryY=0;entryDx=0;entryDy=0;" edge="1" parent="1" source="nUuJe6dKJoetneS6zdkK-14" target="nUuJe6dKJoetneS6zdkK-29">
          <mxGeometry relative="1" as="geometry" />
        </mxCell>
        <mxCell id="nUuJe6dKJoetneS6zdkK-14" value="Основа на пробе&amp;nbsp;&lt;div&gt;или&amp;nbsp;&lt;span style=&quot;background-color: initial;&quot;&gt;брак продукта&lt;/span&gt;&lt;/div&gt;" style="rhombus;whiteSpace=wrap;html=1;" vertex="1" parent="1">
          <mxGeometry x="600" y="600" width="160" height="80" as="geometry" />
        </mxCell>
        <mxCell id="nUuJe6dKJoetneS6zdkK-15" value="Делаем запись" style="rounded=1;whiteSpace=wrap;html=1;fillColor=#d5e8d4;strokeColor=#82b366;" vertex="1" parent="1">
          <mxGeometry x="440" y="480" width="160" height="80" as="geometry" />
        </mxCell>
        <mxCell id="nUuJe6dKJoetneS6zdkK-36" style="edgeStyle=orthogonalEdgeStyle;rounded=0;orthogonalLoop=1;jettySize=auto;html=1;exitX=0;exitY=0.5;exitDx=0;exitDy=0;entryX=0.5;entryY=0;entryDx=0;entryDy=0;" edge="1" parent="1" source="nUuJe6dKJoetneS6zdkK-20" target="nUuJe6dKJoetneS6zdkK-14">
          <mxGeometry relative="1" as="geometry" />
        </mxCell>
        <mxCell id="nUuJe6dKJoetneS6zdkK-74" style="edgeStyle=orthogonalEdgeStyle;rounded=0;orthogonalLoop=1;jettySize=auto;html=1;exitX=0.5;exitY=1;exitDx=0;exitDy=0;entryX=0.75;entryY=1;entryDx=0;entryDy=0;" edge="1" parent="1" source="nUuJe6dKJoetneS6zdkK-20" target="nUuJe6dKJoetneS6zdkK-22">
          <mxGeometry relative="1" as="geometry">
            <Array as="points">
              <mxPoint x="840" y="880" />
              <mxPoint x="520" y="880" />
            </Array>
          </mxGeometry>
        </mxCell>
        <mxCell id="nUuJe6dKJoetneS6zdkK-20" value="Продукт на пробе" style="rhombus;whiteSpace=wrap;html=1;" vertex="1" parent="1">
          <mxGeometry x="760" y="520" width="160" height="80" as="geometry" />
        </mxCell>
        <mxCell id="nUuJe6dKJoetneS6zdkK-22" value="&quot;Продукт уже на пробе&quot;" style="rounded=1;whiteSpace=wrap;html=1;fillColor=#f8cecc;strokeColor=#b85450;" vertex="1" parent="1">
          <mxGeometry x="400" y="760" width="160" height="80" as="geometry" />
        </mxCell>
        <mxCell id="nUuJe6dKJoetneS6zdkK-29" value="Необходим статус &quot;Основа на пробе&quot; или &quot;Брак продукта&quot;" style="rounded=1;whiteSpace=wrap;html=1;fillColor=#f8cecc;strokeColor=#b85450;" vertex="1" parent="1">
          <mxGeometry x="600" y="760" width="160" height="80" as="geometry" />
        </mxCell>
        <mxCell id="nUuJe6dKJoetneS6zdkK-34" style="edgeStyle=orthogonalEdgeStyle;rounded=0;orthogonalLoop=1;jettySize=auto;html=1;exitX=1;exitY=0.5;exitDx=0;exitDy=0;" edge="1" parent="1" source="nUuJe6dKJoetneS6zdkK-33">
          <mxGeometry relative="1" as="geometry">
            <mxPoint x="520" y="480" as="targetPoint" />
            <Array as="points">
              <mxPoint x="520" y="400" />
              <mxPoint x="520" y="480" />
            </Array>
          </mxGeometry>
        </mxCell>
        <mxCell id="nUuJe6dKJoetneS6zdkK-57" style="edgeStyle=orthogonalEdgeStyle;rounded=0;orthogonalLoop=1;jettySize=auto;html=1;entryX=0.5;entryY=0;entryDx=0;entryDy=0;" edge="1" parent="1" source="nUuJe6dKJoetneS6zdkK-33" target="nUuJe6dKJoetneS6zdkK-35">
          <mxGeometry relative="1" as="geometry">
            <mxPoint x="120" y="460" as="targetPoint" />
          </mxGeometry>
        </mxCell>
        <mxCell id="nUuJe6dKJoetneS6zdkK-33" value="Есть запись в истории" style="rhombus;whiteSpace=wrap;html=1;" vertex="1" parent="1">
          <mxGeometry x="200" y="360" width="160" height="80" as="geometry" />
        </mxCell>
        <mxCell id="nUuJe6dKJoetneS6zdkK-62" style="edgeStyle=orthogonalEdgeStyle;rounded=0;orthogonalLoop=1;jettySize=auto;html=1;exitX=1;exitY=0.5;exitDx=0;exitDy=0;entryX=0.5;entryY=0;entryDx=0;entryDy=0;" edge="1" parent="1" source="nUuJe6dKJoetneS6zdkK-35" target="nUuJe6dKJoetneS6zdkK-43">
          <mxGeometry relative="1" as="geometry" />
        </mxCell>
        <mxCell id="nUuJe6dKJoetneS6zdkK-73" style="edgeStyle=orthogonalEdgeStyle;rounded=0;orthogonalLoop=1;jettySize=auto;html=1;entryX=0.25;entryY=1;entryDx=0;entryDy=0;" edge="1" parent="1" source="nUuJe6dKJoetneS6zdkK-35" target="nUuJe6dKJoetneS6zdkK-22">
          <mxGeometry relative="1" as="geometry">
            <mxPoint x="440" y="850" as="targetPoint" />
            <Array as="points">
              <mxPoint x="120" y="880" />
              <mxPoint x="441" y="880" />
            </Array>
          </mxGeometry>
        </mxCell>
        <mxCell id="nUuJe6dKJoetneS6zdkK-35" value="Продукт на пробе" style="rhombus;whiteSpace=wrap;html=1;" vertex="1" parent="1">
          <mxGeometry x="40" y="480" width="160" height="80" as="geometry" />
        </mxCell>
        <mxCell id="nUuJe6dKJoetneS6zdkK-64" style="edgeStyle=orthogonalEdgeStyle;rounded=0;orthogonalLoop=1;jettySize=auto;html=1;entryX=0.5;entryY=0;entryDx=0;entryDy=0;" edge="1" parent="1" source="nUuJe6dKJoetneS6zdkK-43" target="nUuJe6dKJoetneS6zdkK-45">
          <mxGeometry relative="1" as="geometry" />
        </mxCell>
        <mxCell id="nUuJe6dKJoetneS6zdkK-66" style="edgeStyle=orthogonalEdgeStyle;rounded=0;orthogonalLoop=1;jettySize=auto;html=1;exitX=1;exitY=0.5;exitDx=0;exitDy=0;entryX=0;entryY=0.5;entryDx=0;entryDy=0;" edge="1" parent="1" source="nUuJe6dKJoetneS6zdkK-43" target="nUuJe6dKJoetneS6zdkK-15">
          <mxGeometry relative="1" as="geometry" />
        </mxCell>
        <mxCell id="nUuJe6dKJoetneS6zdkK-43" value="Брак продукта" style="rhombus;whiteSpace=wrap;html=1;" vertex="1" parent="1">
          <mxGeometry x="200" y="560" width="160" height="80" as="geometry" />
        </mxCell>
        <mxCell id="nUuJe6dKJoetneS6zdkK-45" value="Необходимо отсутсвие записей или статус &quot;Брак продукта&quot;" style="rounded=1;whiteSpace=wrap;html=1;fillColor=#f8cecc;strokeColor=#b85450;" vertex="1" parent="1">
          <mxGeometry x="200" y="760" width="160" height="80" as="geometry" />
        </mxCell>
        <mxCell id="nUuJe6dKJoetneS6zdkK-47" value="Да" style="text;html=1;align=center;verticalAlign=middle;resizable=0;points=[];autosize=1;strokeColor=none;fillColor=none;" vertex="1" parent="1">
          <mxGeometry x="360" y="248" width="40" height="30" as="geometry" />
        </mxCell>
        <mxCell id="nUuJe6dKJoetneS6zdkK-52" value="Нет" style="text;html=1;align=center;verticalAlign=middle;resizable=0;points=[];autosize=1;strokeColor=none;fillColor=none;" vertex="1" parent="1">
          <mxGeometry x="840" y="370" width="40" height="30" as="geometry" />
        </mxCell>
        <mxCell id="nUuJe6dKJoetneS6zdkK-54" value="Да" style="text;html=1;align=center;verticalAlign=middle;resizable=0;points=[];autosize=1;strokeColor=none;fillColor=none;" vertex="1" parent="1">
          <mxGeometry x="560" y="610" width="40" height="30" as="geometry" />
        </mxCell>
        <mxCell id="nUuJe6dKJoetneS6zdkK-55" value="Нет" style="text;html=1;align=center;verticalAlign=middle;resizable=0;points=[];autosize=1;strokeColor=none;fillColor=none;" vertex="1" parent="1">
          <mxGeometry x="360" y="370" width="40" height="30" as="geometry" />
        </mxCell>
        <mxCell id="nUuJe6dKJoetneS6zdkK-58" value="Да" style="text;html=1;align=center;verticalAlign=middle;resizable=0;points=[];autosize=1;strokeColor=none;fillColor=none;" vertex="1" parent="1">
          <mxGeometry x="160" y="428" width="40" height="30" as="geometry" />
        </mxCell>
        <mxCell id="nUuJe6dKJoetneS6zdkK-60" value="Нет" style="text;html=1;align=center;verticalAlign=middle;resizable=0;points=[];autosize=1;strokeColor=none;fillColor=none;" vertex="1" parent="1">
          <mxGeometry x="210" y="490" width="40" height="30" as="geometry" />
        </mxCell>
        <mxCell id="nUuJe6dKJoetneS6zdkK-63" value="Да" style="text;html=1;align=center;verticalAlign=middle;resizable=0;points=[];autosize=1;strokeColor=none;fillColor=none;" vertex="1" parent="1">
          <mxGeometry x="350" y="568" width="40" height="30" as="geometry" />
        </mxCell>
        <mxCell id="nUuJe6dKJoetneS6zdkK-65" value="Нет" style="text;html=1;align=center;verticalAlign=middle;resizable=0;points=[];autosize=1;strokeColor=none;fillColor=none;" vertex="1" parent="1">
          <mxGeometry x="290" y="650" width="40" height="30" as="geometry" />
        </mxCell>
        <mxCell id="nUuJe6dKJoetneS6zdkK-67" value="Нет" style="text;html=1;align=center;verticalAlign=middle;resizable=0;points=[];autosize=1;strokeColor=none;fillColor=none;" vertex="1" parent="1">
          <mxGeometry x="680" y="690" width="40" height="30" as="geometry" />
        </mxCell>
        <mxCell id="nUuJe6dKJoetneS6zdkK-71" value="Да" style="text;html=1;align=center;verticalAlign=middle;resizable=0;points=[];autosize=1;strokeColor=none;fillColor=none;" vertex="1" parent="1">
          <mxGeometry x="770" y="448" width="40" height="30" as="geometry" />
        </mxCell>
        <mxCell id="nUuJe6dKJoetneS6zdkK-75" value="Да" style="text;html=1;align=center;verticalAlign=middle;resizable=0;points=[];autosize=1;strokeColor=none;fillColor=none;" vertex="1" parent="1">
          <mxGeometry x="840" y="600" width="40" height="30" as="geometry" />
        </mxCell>
        <mxCell id="nUuJe6dKJoetneS6zdkK-76" value="Да" style="text;html=1;align=center;verticalAlign=middle;resizable=0;points=[];autosize=1;strokeColor=none;fillColor=none;" vertex="1" parent="1">
          <mxGeometry x="120" y="560" width="40" height="30" as="geometry" />
        </mxCell>
      </root>
    </mxGraphModel>
  </diagram>
</mxfile>
